HIERARCHY
ROOT Hips
{
 OFFSET 0.000000 0.000000 0.000000
 CHANNELS 6 Xposition Yposition Zposition Yrotation Xrotation Zrotation
 JOINT Chest
 {
  OFFSET 0.000000 9.588913 -0.003946
  CHANNELS 3 Yrotation Xrotation Zrotation
  JOINT Chest2
  {
   OFFSET 0.000000 9.541882 0.008053
   CHANNELS 3 Yrotation Xrotation Zrotation
   JOINT Chest3
   {
    OFFSET 0.000000 9.501360 0.000000
    CHANNELS 3 Yrotation Xrotation Zrotation
    JOINT Chest4
    {
     OFFSET 0.000000 9.491660 0.000000
     CHANNELS 3 Yrotation Xrotation Zrotation
     JOINT Neck
     {
      OFFSET 0.000000 14.331917 0.000000
      CHANNELS 3 Yrotation Xrotation Zrotation
      JOINT Head
      {
       OFFSET 0.000000 8.884799 0.017034
       CHANNELS 3 Yrotation Xrotation Zrotation
       End Site
       {
        OFFSET 0.000000 16.896195 0.008993
       }
      }
     }
     JOINT RightCollar
     {
      OFFSET -2.923010 9.499495 0.000000
      CHANNELS 3 Yrotation Xrotation Zrotation
      JOINT RightShoulder
      {
       OFFSET -13.795216 0.000000 0.000000
       CHANNELS 3 Yrotation Xrotation Zrotation
       JOINT RightElbow
       {
        OFFSET -30.272209 0.000000 0.000000
        CHANNELS 3 Yrotation Xrotation Zrotation
        JOINT RightWrist
        {
         OFFSET -24.478199 0.000000 0.000000
         CHANNELS 3 Yrotation Xrotation Zrotation
         End Site
         {
          OFFSET -18.090752 0.000000 0.000000
         }
        }
       }
      }
     }
     JOINT LeftCollar
     {
      OFFSET 2.923010 9.499495 0.000000
      CHANNELS 3 Yrotation Xrotation Zrotation
      JOINT LeftShoulder
      {
       OFFSET 13.795216 0.000000 0.000000
       CHANNELS 3 Yrotation Xrotation Zrotation
       JOINT LeftElbow
       {
        OFFSET 30.272209 0.000000 0.000000
        CHANNELS 3 Yrotation Xrotation Zrotation
        JOINT LeftWrist
        {
         OFFSET 24.478199 0.000000 0.000000
         CHANNELS 3 Yrotation Xrotation Zrotation
         End Site
         {
          OFFSET 18.090752 0.000000 0.000000
         }
        }
       }
      }
     }
    }
   }
  }
 }
 JOINT RightHip
 {
  OFFSET -7.826875 0.019532 0.001973
  CHANNELS 3 Yrotation Xrotation Zrotation
  JOINT RightKnee
  {
   OFFSET 0.000000 -40.546152 -0.001885
   CHANNELS 3 Yrotation Xrotation Zrotation
   JOINT RightAnkle
   {
    OFFSET 0.000000 -39.417092 -0.003189
    CHANNELS 3 Yrotation Xrotation Zrotation
    JOINT RightToe
    {
     OFFSET 0.000000 -7.579396 17.243563
     CHANNELS 3 Yrotation Xrotation Zrotation
     End Site
     {
      OFFSET 0.000000 -1.500329 6.694466
     }
    }
   }
  }
 }
 JOINT LeftHip
 {
  OFFSET 7.826875 0.019532 0.001973
  CHANNELS 3 Yrotation Xrotation Zrotation
  JOINT LeftKnee
  {
   OFFSET 0.000000 -40.546152 -0.001885
   CHANNELS 3 Yrotation Xrotation Zrotation
   JOINT LeftAnkle
   {
    OFFSET 0.000000 -39.417092 -0.003189
    CHANNELS 3 Yrotation Xrotation Zrotation
    JOINT LeftToe
    {
     OFFSET 0.000000 -7.579396 17.243563
     CHANNELS 3 Yrotation Xrotation Zrotation
     End Site
     {
      OFFSET 0.000000 -1.500329 6.694466
     }
    }
   }
  }
 }
}
MOTION
Frames: 7
Frame Time: 0.008333
33.464276 88.414335 -29.685592 127.205800 -5.437897 0.503712 1.213624 7.012179 0.834724 0.697179 4.009553 0.526880 0.877789 5.010903 0.666653 0.697179 4.009554 0.526881 -4.489349 29.263642 -0.572091 -4.855332 6.943322 0.380367 0.721876 0.557970 -5.710166 -7.577949 -0.999637 87.052874 10.849637 -4.929067 4.415347 2.384513 -6.548645 -1.934689 -8.305195 -0.905126 -2.934190 5.313193 -7.840298 -91.099886 -6.796914 6.089538 -5.102747 -3.021803 4.054558 -0.627174 -15.270601 -0.134826 -11.085762 -6.144656 2.309552 0.196300 6.341243 3.274361 6.445847 0.043379 -0.581987 -0.325849 -2.436030 6.074510 7.118029 -0.039081 11.505758 1.194762 5.406009 -10.198966 -6.355800 0.017883 0.453214 0.038502
33.175178 88.363336 -29.872376 127.091463 -5.382570 0.466405 1.247142 7.016940 0.786141 0.717017 4.013354 0.501515 0.902330 5.015675 0.635153 0.717018 4.013355 0.501515 -4.474964 29.255258 -0.538216 -4.846794 6.932011 0.414784 0.686746 0.686810 -5.640432 -7.722355 -0.963321 87.070791 10.840021 -4.855461 4.403569 2.336581 -6.505385 -1.878640 -8.264228 -0.936566 -2.881095 5.424292 -7.898717 -91.071414 -6.905547 5.990963 -5.228005 -3.160629 3.948297 -0.553086 -15.314715 -0.335715 -11.223545 -6.230370 2.237581 0.174283 6.518821 3.544340 6.791628 0.053129 -0.595698 -0.361637 -2.725243 6.129250 7.001968 0.207467 11.191063 1.053656 5.484294 -10.042221 -6.155110 0.012759 0.411353 0.086564
32.888577 88.314944 -30.046087 126.965933 -5.313096 0.427482 1.289194 7.020440 0.735816 0.740383 4.015011 0.478048 0.931300 5.017761 0.606062 0.740383 4.015012 0.478049 -4.461753 29.251777 -0.506180 -4.839256 6.927222 0.447392 0.645235 0.836143 -5.571690 -7.849225 -0.962974 87.103365 10.800411 -4.758812 4.375780 2.296656 -6.466114 -1.832952 -8.231161 -0.966137 -2.822300 5.537298 -7.951297 -91.034099 -7.013523 5.876277 -5.365688 -3.295244 3.840846 -0.481134 -15.348475 -0.541172 -11.335618 -6.302727 2.138732 0.135685 6.691326 3.835862 7.146246 0.065370 -0.611420 -0.394664 -3.000332 6.138017 6.879528 0.540959 10.929091 0.937694 5.497278 -9.920336 -5.945742 0.008373 0.395090 0.114910
32.607184 88.270207 -30.205852 126.834603 -5.236527 0.384878 1.333766 7.022811 0.684155 0.763885 4.014731 0.457393 0.960468 5.017422 0.580484 0.763885 4.014731 0.457393 -4.446755 29.256118 -0.479553 -4.828643 6.932559 0.473549 0.611657 1.010942 -5.512428 -7.961352 -0.996489 87.163236 10.735180 -4.633255 4.324611 2.260386 -6.433787 -1.799545 -8.195707 -0.987542 -2.759698 5.646865 -8.002516 -90.989420 -7.111722 5.741601 -5.507340 -3.422835 3.731678 -0.414380 -15.373244 -0.745640 -11.419414 -6.364699 2.023791 0.076914 6.861108 4.137689 7.509915 0.079497 -0.627280 -0.425670 -3.260986 6.116284 6.751377 0.937633 10.710448 0.848030 5.465726 -9.841143 -5.734134 0.006815 0.411264 0.129483
32.332481 88.229968 -30.351642 126.698758 -5.155770 0.339005 1.377102 7.023148 0.631852 0.786121 4.012079 0.440003 0.988085 5.014116 0.558972 0.786121 4.012079 0.440003 -4.429082 29.268673 -0.462299 -4.813058 6.948406 0.488655 0.590087 1.207935 -5.468699 -8.053775 -1.053624 87.252021 10.651747 -4.481269 4.249656 2.221331 -6.404596 -1.772845 -8.148535 -0.995322 -2.695424 5.742675 -8.054401 -90.939027 -7.194251 5.584260 -5.645101 -3.543180 3.618411 -0.357753 -15.397893 -0.949699 -11.475903 -6.415033 1.902120 -0.001577 7.038985 4.436074 7.882115 0.094154 -0.638013 -0.455872 -3.516093 6.078491 6.616743 1.346239 10.520901 0.780285 5.437061 -9.804663 -5.527095 0.007996 0.461196 0.134654
32.065363 88.194834 -30.483718 126.553938 -5.070764 0.287356 1.419149 7.022121 0.579640 0.808161 4.007523 0.425828 1.015490 5.008424 0.541473 0.808161 4.007522 0.425828 -4.408488 29.286054 -0.456159 -4.791755 6.970246 0.490741 0.575018 1.409615 -5.440615 -8.117644 -1.117078 87.365536 10.555505 -4.307267 4.154079 2.175399 -6.370493 -1.745247 -8.085630 -0.989540 -2.621085 5.817014 -8.106744 -90.888685 -7.262179 5.399156 -5.778540 -3.649832 3.495993 -0.305998 -15.425790 -1.155891 -11.501001 -6.446730 1.783278 -0.095965 7.220279 4.714870 8.256285 0.105726 -0.634663 -0.485487 -3.764150 6.034935 6.483797 1.720424 10.345567 0.723848 5.444396 -9.805107 -5.322326 0.010313 0.541477 0.129976
31.806605 88.165313 -30.603510 126.397608 -4.983944 0.227214 1.461892 7.020593 0.527148 0.831891 4.002253 0.414305 1.045037 5.001834 0.527307 0.831891 4.002252 0.414305 -4.385146 29.305949 -0.458915 -4.765388 6.995081 0.482320 0.559884 1.595202 -5.423460 -8.158750 -1.166440 87.504579 10.452423 -4.106454 4.037519 2.117648 -6.325014 -1.712313 -8.012411 -0.971828 -2.523631 5.870516 -8.155346 -90.849270 -7.321336 5.174358 -5.908506 -3.723520 3.364650 -0.248303 -15.455413 -1.363362 -11.492676 -6.450322 1.679960 -0.202296 7.395565 4.950854 8.622449 0.110848 -0.606530 -0.511235 -3.994290 5.994243 6.362883 2.041824 10.172323 0.670348 5.486925 -9.830685 -5.115824 0.012661 0.643879 0.115974
